<svg width="67" height="67" viewBox="0 0 67 67" fill="none" xmlns="http://www.w3.org/2000/svg">
<rect width="67" height="67" rx="33.5" fill="black"/>
<g clip-path="url(#clip0_349_65)">
<path d="M33.9537 37.1837C33.9537 34.8737 32.855 33.1662 30.585 32.5262C32.2413 31.7375 33.105 30.5425 33.105 28.6838C33.105 25.0188 30.365 24.125 27.2037 24.125H18.5V42.5263H27.4475C30.8025 42.5263 33.9537 40.9225 33.9537 37.1837ZM22.5575 27.2663H26.365C27.8287 27.2663 29.1462 27.6762 29.1462 29.3687C29.1462 30.9312 28.1213 31.56 26.6713 31.56H22.5575V27.2663ZM22.5562 39.4013V34.3337H26.9788C28.765 34.3337 29.895 35.0763 29.895 36.9613C29.895 38.82 28.5463 39.4013 26.895 39.4013H22.5562Z" fill="white"/>
<path d="M41.995 42.875C45.1875 42.875 47.255 41.4413 48.25 38.3938H45.01C44.6613 39.5313 43.2238 40.1325 42.1087 40.1325C39.9575 40.1325 38.8275 38.8763 38.8275 36.7413H48.4688C48.485 36.525 48.5 36.2913 48.5 36.0575C48.5 32.1163 46.1875 28.83 41.995 28.83C37.9213 28.83 35.1563 31.8825 35.1563 35.8813C35.155 40.0288 37.775 42.875 41.995 42.875ZM41.88 31.5925C43.7238 31.5925 44.6513 32.6725 44.8063 34.4388H38.8325C38.9538 32.6875 40.12 31.5925 41.88 31.5925Z" fill="white"/>
<path d="M38.084 25.0912H45.569V26.9037H38.084V25.0912Z" fill="white"/>
</g>
<defs>
<clipPath id="clip0_349_65">
<rect width="30" height="30" fill="white" transform="translate(18.5 18.5)"/>
</clipPath>
</defs>
</svg>
