<?xml version="1.0" encoding="UTF-8"?> <svg xmlns="http://www.w3.org/2000/svg" width="927" height="219" viewBox="0 0 927 219" fill="none"> <path d="M0.135 0.499993H45.81C56.9267 0.499993 66.6417 2.57833 74.955 6.735C83.365 10.8917 89.8417 16.8367 94.385 24.57C99.025 32.2067 101.345 41.1 101.345 51.25C101.345 61.4 99.025 70.3417 94.385 78.075C89.8417 85.7117 83.365 91.6083 74.955 95.765C66.6417 99.9217 56.9267 102 45.81 102H0.135V0.499993ZM44.795 71.115C51.3683 71.115 56.54 69.375 60.31 65.895C64.08 62.3183 65.965 57.4367 65.965 51.25C65.965 45.0633 64.08 40.23 60.31 36.75C56.54 33.1733 51.3683 31.385 44.795 31.385H34.79V71.115H44.795ZM114.407 0.499993H142.827L174.437 43.13L206.192 0.499993H234.467V102H200.247V78.655L200.537 57.775H200.102L184.152 79.67H164.722L148.772 57.63L148.337 57.775L148.627 78.655V102H114.407V0.499993ZM252.752 0.499993H287.842V102H252.752V0.499993ZM330.209 32.255H300.774V0.499993H394.734V32.255H365.299V102H330.209V32.255ZM407.948 0.499993H458.118C466.624 0.499993 473.971 1.99833 480.158 4.995C486.441 7.99166 491.226 12.2933 494.513 17.9C497.896 23.5067 499.588 30.1283 499.588 37.765C499.588 44.435 498.283 50.38 495.673 55.6C493.159 60.7233 489.486 64.88 484.653 68.07L501.618 102H463.048L451.013 75.03H442.748V102H407.948V0.499993ZM452.463 49.22C456.329 49.22 459.278 48.3017 461.308 46.465C463.434 44.5317 464.498 41.825 464.498 38.345C464.498 34.7683 463.434 32.0617 461.308 30.225C459.278 28.3883 456.329 27.47 452.463 27.47H442.168V49.22H452.463ZM515.14 0.499993H550.23V102H515.14V0.499993ZM595.787 68.215L559.682 0.499993H598.542L606.807 19.35L613.042 34.72H613.477L619.567 19.35L627.832 0.499993H666.837L630.877 67.635V102H595.787V68.215ZM0.135 114.5H35.225V148.575H38.27C42.62 148.575 45.665 147.947 47.405 146.69C49.2417 145.433 50.7883 142.92 52.045 139.15L60.31 114.5H98.01L83.365 153.65C81.2383 159.063 78.9667 163.462 76.55 166.845L101.49 216H61.47L44.65 179.895H35.225V216H0.135V114.5ZM156.546 218.175C146.976 218.175 138.662 216.435 131.606 212.955C124.646 209.378 119.281 204.255 115.511 197.585C111.837 190.915 110.001 182.988 110.001 173.805V114.5H144.946V171.92C144.946 181.297 148.812 185.985 156.546 185.985C164.279 185.985 168.146 181.297 168.146 171.92V114.5H203.236V173.805C203.236 182.988 201.351 190.915 197.581 197.585C193.907 204.255 188.542 209.378 181.486 212.955C174.429 216.435 166.116 218.175 156.546 218.175ZM215.547 191.06L253.537 144.95L253.392 144.515L240.777 144.66H216.997V114.5H298.052V139.44L260.207 185.55L260.352 185.985L274.417 185.84H298.922V216H215.547V191.06ZM312.65 114.5H341.07L373.55 158.29H374.13L373.84 145.385V114.5H408.205V216H379.785L347.16 171.775H346.725L347.015 185.115V216H312.65V114.5ZM426.356 114.5H499.436V140.455H460.431V152.2H495.666V177.43H460.431V189.61H500.886V216H426.356V114.5ZM539.921 146.255H510.486V114.5H604.446V146.255H575.011V216H539.921V146.255ZM654.53 218.175C640.707 218.175 629.929 215.082 622.195 208.895C614.559 202.612 610.74 193.863 610.74 182.65H644.235C644.235 185.937 645.105 188.45 646.845 190.19C648.585 191.93 651.099 192.8 654.385 192.8C657.189 192.8 659.364 192.268 660.91 191.205C662.457 190.045 663.23 188.45 663.23 186.42C663.23 183.907 661.877 181.877 659.17 180.33C656.56 178.687 652.355 177.382 646.555 176.415C634.569 174.385 625.724 170.76 620.02 165.54C614.317 160.32 611.465 153.263 611.465 144.37C611.465 134.413 615.09 126.583 622.34 120.88C629.687 115.177 639.74 112.325 652.5 112.325C661.2 112.325 668.74 113.727 675.12 116.53C681.597 119.333 686.575 123.393 690.055 128.71C693.632 133.93 695.469 140.068 695.565 147.125H662.795C662.795 143.935 661.925 141.518 660.185 139.875C658.542 138.135 656.174 137.265 653.08 137.265C650.374 137.265 648.247 137.845 646.7 139.005C645.154 140.165 644.38 141.712 644.38 143.645C644.38 145.965 645.589 147.85 648.005 149.3C650.519 150.75 654.82 152.055 660.91 153.215C673.574 155.632 682.805 159.402 688.605 164.525C694.502 169.648 697.45 176.56 697.45 185.26C697.45 195.603 693.68 203.675 686.14 209.475C678.6 215.275 668.064 218.175 654.53 218.175ZM761.728 218.175C750.805 218.175 741.09 215.952 732.583 211.505C724.077 206.962 717.455 200.678 712.718 192.655C707.982 184.632 705.613 175.497 705.613 165.25C705.613 155.003 707.982 145.868 712.718 137.845C717.455 129.822 724.077 123.587 732.583 119.14C741.09 114.597 750.805 112.325 761.728 112.325C772.748 112.325 782.512 114.597 791.018 119.14C799.525 123.587 806.147 129.822 810.883 137.845C815.62 145.868 817.988 155.003 817.988 165.25C817.988 175.497 815.62 184.632 810.883 192.655C806.147 200.678 799.525 206.962 791.018 211.505C782.512 215.952 772.748 218.175 761.728 218.175ZM740.993 165.25C740.993 171.437 742.927 176.512 746.793 180.475C750.66 184.342 755.638 186.275 761.728 186.275C767.818 186.275 772.797 184.342 776.663 180.475C780.627 176.512 782.608 171.437 782.608 165.25C782.608 159.063 780.627 154.037 776.663 150.17C772.797 146.207 767.818 144.225 761.728 144.225C755.638 144.225 750.66 146.207 746.793 150.17C742.927 154.037 740.993 159.063 740.993 165.25ZM817.397 114.5H854.807L864.522 145.965L871.772 170.325H872.352L879.747 145.965L889.462 114.5H926.727L890.332 216H853.792L817.397 114.5Z" fill="white"></path> </svg> 