<?xml version="1.0" encoding="UTF-8"?> <svg xmlns="http://www.w3.org/2000/svg" width="559" height="64" viewBox="0 0 559 64" fill="none"> <g clip-path="url(#clip0_790_3)"> <path d="M0 -68H27.5551C34.2616 -68 40.1226 -66.7397 45.1379 -64.219C50.2115 -61.6984 54.1188 -58.0933 56.8597 -53.4037C59.659 -48.7728 61.0586 -43.3798 61.0586 -37.2248C61.0586 -31.0697 59.659 -25.6474 56.8597 -20.9578C54.1188 -16.3269 50.2115 -12.7511 45.1379 -10.2305C40.1226 -7.70982 34.2616 -6.44952 27.5551 -6.44952H0V-68ZM26.9428 -25.1784C30.9083 -25.1784 34.0283 -26.2336 36.3027 -28.3439C38.5771 -30.5128 39.7143 -33.4731 39.7143 -37.2248C39.7143 -40.9764 38.5771 -43.9074 36.3027 -46.0177C34.0283 -48.1866 30.9083 -49.2711 26.9428 -49.2711H20.9069V-25.1784H26.9428ZM68.9387 -68H86.0841L105.154 -42.1488L124.311 -68H141.369V-6.44952H120.725V-20.6061L120.9 -33.2679H120.637L111.015 -19.9906H99.293L89.6706 -33.3559L89.4082 -33.2679L89.5832 -20.6061V-6.44952H68.9387V-68ZM152.4 -68H173.57V-6.44952H152.4V-68ZM199.129 -48.7435H181.371V-68H238.056V-48.7435H220.298V-6.44952H199.129V-48.7435ZM246.028 -68H276.295C281.426 -68 285.859 -67.0914 289.591 -65.2742C293.382 -63.457 296.268 -60.8484 298.251 -57.4485C300.292 -54.0485 301.313 -50.0331 301.313 -45.4022C301.313 -41.3574 300.526 -37.7523 298.951 -34.5869C297.434 -31.4801 295.219 -28.9594 292.303 -27.025L302.538 -6.44952H279.269L272.008 -22.8044H267.022V-6.44952H246.028V-68ZM272.883 -38.4558C275.215 -38.4558 276.995 -39.0126 278.219 -40.1264C279.502 -41.2988 280.144 -42.9402 280.144 -45.0505C280.144 -47.2194 279.502 -48.8607 278.219 -49.9745C276.995 -51.0883 275.215 -51.6452 272.883 -51.6452H266.672V-38.4558H272.883ZM310.695 -68H331.865V-6.44952H310.695V-68ZM359.349 -26.937L337.567 -68H361.011L365.997 -56.5692L369.758 -47.2487H370.021L373.695 -56.5692L378.681 -68H402.212L380.518 -27.2887V-6.44952H359.349V-26.937ZM0 1.13059H21.1693V21.794H23.0063C25.6306 21.794 27.4676 21.4131 28.5173 20.6509C29.6254 19.8886 30.5584 18.3647 31.3166 16.0786L36.3027 1.13059H59.0466L50.2115 24.8715C48.9285 28.154 47.5581 30.8216 46.1001 32.873L61.1461 62.6811H37.0026L26.8553 40.7867H21.1693V62.6811H0V1.13059ZM94.3606 64C88.5871 64 83.5714 62.9449 79.3146 60.8345C75.1158 58.6654 71.8791 55.5588 69.6047 51.5141C67.3883 47.4693 66.2806 42.6623 66.2806 37.0937V1.13059H87.3625V35.9506C87.3625 41.6369 89.6948 44.4797 94.3606 44.4797C99.0258 44.4797 101.359 41.6369 101.359 35.9506V1.13059H122.528V37.0937C122.528 42.6623 121.391 47.4693 119.116 51.5141C116.9 55.5588 113.663 58.6654 109.407 60.8345C105.149 62.9449 100.134 64 94.3606 64ZM129.955 47.5572L152.874 19.5957L152.786 19.3319L145.176 19.4199H130.83V1.13059H179.729V16.2544L156.898 44.2159L156.985 44.4797L165.47 44.3918H180.254V62.6811H129.955V47.5572ZM188.536 1.13059H205.681L225.276 27.6852H225.626L225.451 19.8595V1.13059H246.183V62.6811H229.038L209.355 35.8626H209.093L209.268 43.9521V62.6811H188.536V1.13059ZM257.133 1.13059H301.221V16.8699H277.69V23.9922H298.947V39.2919H277.69V46.6779H302.096V62.6811H257.133V1.13059ZM325.645 20.3871H307.888V1.13059H364.572V20.3871H346.815V62.6811H325.645V20.3871ZM394.787 64C386.448 64 379.946 62.1244 375.28 58.3725C370.673 54.5625 368.369 49.257 368.369 42.4573H388.577C388.577 44.4506 389.101 45.9745 390.151 47.0297C391.201 48.0848 392.717 48.6124 394.7 48.6124C396.392 48.6124 397.704 48.2898 398.636 47.6452C399.57 46.9417 400.036 45.9745 400.036 44.7435C400.036 43.2196 399.22 41.9886 397.587 41.0505C396.012 40.0541 393.475 39.2628 389.976 38.6764C382.745 37.4454 377.409 35.2471 373.968 32.0817C370.527 28.9162 368.807 24.6368 368.807 19.244C368.807 13.206 370.994 8.45782 375.368 4.99947C379.8 1.54113 385.865 -0.188347 393.563 -0.188347C398.811 -0.188347 403.36 0.661839 407.209 2.3616C411.116 4.06137 414.12 6.52338 416.219 9.74766C418.377 12.9131 419.485 16.6352 419.543 20.9147H399.773C399.773 18.9802 399.249 17.5145 398.199 16.5182C397.208 15.4631 395.779 14.9355 393.913 14.9355C392.28 14.9355 390.997 15.2872 390.064 15.9906C389.131 16.6941 388.664 17.6322 388.664 18.8044C388.664 20.2112 389.393 21.3543 390.851 22.2336C392.368 23.1129 394.962 23.9043 398.636 24.6077C406.276 26.0734 411.845 28.3595 415.344 31.4662C418.902 34.5728 420.68 38.7643 420.68 44.0401C420.68 50.3121 418.406 55.2071 413.857 58.7243C409.308 62.2414 402.952 64 394.787 64ZM459.458 64C452.869 64 447.008 62.652 441.876 59.9553C436.744 57.2003 432.749 53.3897 429.891 48.5245C427.034 43.6592 425.605 38.1197 425.605 31.9058C425.605 25.692 427.034 20.1524 429.891 15.2872C432.749 10.422 436.744 6.64103 441.876 3.94433C447.008 1.18941 452.869 -0.188347 459.458 -0.188347C466.107 -0.188347 471.997 1.18941 477.129 3.94433C482.261 6.64103 486.256 10.422 489.113 15.2872C491.971 20.1524 493.399 25.692 493.399 31.9058C493.399 38.1197 491.971 43.6592 489.113 48.5245C486.256 53.3897 482.261 57.2003 477.129 59.9553C471.997 62.652 466.107 64 459.458 64ZM446.949 31.9058C446.949 35.6577 448.116 38.7352 450.448 41.1384C452.781 43.4834 455.784 44.6556 459.458 44.6556C463.132 44.6556 466.136 43.4834 468.469 41.1384C470.86 38.7352 472.055 35.6577 472.055 31.9058C472.055 28.154 470.86 25.1062 468.469 22.7612C466.136 20.358 463.132 19.1561 459.458 19.1561C455.784 19.1561 452.781 20.358 450.448 22.7612C448.116 25.1062 446.949 28.154 446.949 31.9058ZM493.043 1.13059H515.612L521.473 20.2112L525.846 34.9833H526.196L530.658 20.2112L536.519 1.13059H559L537.043 62.6811H514.999L493.043 1.13059Z" fill="white"></path> </g> <defs> <clipPath id="clip0_790_3"> <rect width="559" height="64" fill="white"></rect> </clipPath> </defs> </svg> 