<svg width="212" height="65" viewBox="0 0 212 65" fill="none" xmlns="http://www.w3.org/2000/svg">
<path d="M0 7.80483V0.154185H2.3656C2.44861 0.154185 2.58935 0.155956 2.78783 0.159498C2.98993 0.163039 3.183 0.177206 3.36705 0.202001C3.95891 0.283465 4.4533 0.499526 4.85028 0.850181C5.24726 1.20084 5.54499 1.64712 5.74347 2.18904C5.94195 2.73097 6.0412 3.32779 6.0412 3.97951C6.0412 4.63122 5.94195 5.22805 5.74347 5.76997C5.54499 6.31189 5.24726 6.75818 4.85028 7.10884C4.4533 7.45949 3.95891 7.67554 3.36705 7.75702C3.1866 7.77827 2.99353 7.79243 2.78783 7.79952C2.58213 7.80306 2.44138 7.80483 2.3656 7.80483H0ZM0.822816 7.05571H2.3656C2.51357 7.05571 2.67234 7.05217 2.84196 7.04508C3.01519 7.03446 3.16316 7.01674 3.28585 6.99195C3.74056 6.91403 4.10686 6.73339 4.38474 6.45003C4.66623 6.16667 4.87194 5.81248 5.00186 5.38744C5.13177 4.95887 5.19673 4.48955 5.19673 3.97951C5.19673 3.46593 5.13177 2.99484 5.00186 2.56626C4.87194 2.13769 4.66623 1.78349 4.38474 1.50367C4.10325 1.22386 3.73696 1.04499 3.28585 0.967066C3.16316 0.942273 3.01338 0.926334 2.83655 0.919249C2.66333 0.908624 2.50634 0.903311 2.3656 0.903311H0.822816V7.05571ZM7.38233 7.80483V0.154185H8.17808V7.80483H7.38233ZM12.5076 7.96422C11.9627 7.96422 11.4719 7.87568 11.0352 7.69857C10.6021 7.51793 10.2431 7.26291 9.95794 6.93351C9.67645 6.60411 9.4924 6.21273 9.40579 5.75935L10.2178 5.62652C10.3477 6.12241 10.622 6.51201 11.0406 6.79537C11.4592 7.07518 11.9591 7.2151 12.5401 7.2151C12.9226 7.2151 13.2654 7.15665 13.5686 7.03977C13.8717 6.91935 14.1099 6.74933 14.2831 6.52973C14.4564 6.31012 14.543 6.04978 14.543 5.74872C14.543 5.55036 14.5069 5.38213 14.4347 5.24399C14.3625 5.10232 14.2669 4.98543 14.1478 4.89334C14.0287 4.80124 13.8988 4.7251 13.7581 4.66488C13.6173 4.60112 13.4802 4.54977 13.3466 4.5108L11.3708 3.93169C11.1326 3.8644 10.9125 3.77939 10.7104 3.67667C10.5083 3.57041 10.3315 3.44468 10.1799 3.29945C10.0319 3.15069 9.91645 2.97714 9.83344 2.77878C9.75045 2.58043 9.70893 2.35375 9.70893 2.09872C9.70893 1.6666 9.82442 1.29293 10.0554 0.977692C10.2864 0.662456 10.6021 0.419832 11.0027 0.249818C11.4033 0.0798032 11.8598 -0.0034333 12.3723 0.000108412C12.8919 0.000108412 13.3557 0.0904292 13.7635 0.271069C14.1749 0.45171 14.5141 0.710273 14.7812 1.04676C15.0482 1.3797 15.225 1.77463 15.3117 2.23155L14.478 2.38031C14.4239 2.04737 14.2994 1.7587 14.1045 1.5143C13.9096 1.2699 13.6606 1.08218 13.3575 0.951127C13.058 0.816532 12.7277 0.747463 12.3668 0.743922C12.0168 0.743922 11.7046 0.802365 11.4304 0.919249C11.1597 1.03259 10.945 1.18844 10.7862 1.38679C10.6274 1.58514 10.548 1.81183 10.548 2.06685C10.548 2.3254 10.6202 2.53261 10.7645 2.68846C10.9125 2.84432 11.0929 2.96651 11.3058 3.05506C11.5224 3.1436 11.7317 3.21622 11.9338 3.27289L13.4603 3.71386C13.6191 3.75637 13.805 3.81834 14.0179 3.89981C14.2344 3.97773 14.4437 4.09108 14.6458 4.23984C14.8515 4.38507 15.0212 4.57634 15.1547 4.81364C15.2882 5.05095 15.355 5.35203 15.355 5.71684C15.355 6.07103 15.2828 6.38805 15.1384 6.66786C14.9977 6.94767 14.7974 7.18322 14.5376 7.37448C14.2814 7.56575 13.98 7.71098 13.6335 7.81015C13.2907 7.91287 12.9154 7.96422 12.5076 7.96422ZM16.5806 7.80483V0.154185H17.3764V7.80483H16.5806ZM22.1227 7.96422C21.5741 7.96422 21.0798 7.87037 20.6395 7.68264C20.1991 7.4949 19.824 7.2275 19.5136 6.88038C19.2068 6.53326 18.9722 6.11531 18.8098 5.62652C18.6474 5.1342 18.5662 4.58519 18.5662 3.97951C18.5662 3.17903 18.707 2.48126 18.9885 1.88621C19.2736 1.28761 19.6814 0.823616 20.2119 0.494213C20.7424 0.16481 21.3792 0.000108412 22.1227 0.000108412C22.9528 0.000108412 23.6276 0.191375 24.1473 0.573908C24.6705 0.952897 25.0351 1.46294 25.2408 2.10404L24.4396 2.2953C24.2699 1.82776 23.9904 1.45409 23.6006 1.17427C23.2144 0.894456 22.7326 0.754548 22.1552 0.754548C21.5454 0.751007 21.0383 0.8856 20.6342 1.15833C20.2299 1.42752 19.9249 1.80651 19.7192 2.2953C19.5172 2.78056 19.4143 3.34195 19.4107 3.97951C19.4071 4.61706 19.5063 5.17846 19.7084 5.66371C19.9141 6.14542 20.2208 6.52441 20.6287 6.80069C21.0365 7.07342 21.5454 7.21156 22.1552 7.2151C22.7146 7.2151 23.1764 7.10884 23.541 6.89632C23.9056 6.6838 24.1815 6.37919 24.3693 5.98249C24.5605 5.5858 24.6687 5.11648 24.6941 4.57456H22.8969V3.90513H25.5278C25.5386 3.9866 25.5439 4.07336 25.5439 4.16546C25.5475 4.254 25.5494 4.31776 25.5494 4.35673C25.5494 5.04741 25.423 5.66549 25.1705 6.21095C24.9177 6.75287 24.537 7.18144 24.0282 7.49668C23.5229 7.80837 22.8879 7.96422 22.1227 7.96422ZM26.6329 7.80483V0.154185H27.434L31.7266 6.42347V0.154185H32.5278V7.80483H31.7266L27.434 1.53024V7.80483H26.6329ZM36.2118 7.80483V0.154185H39.2216C39.6582 0.154185 40.0389 0.242733 40.3637 0.419832C40.6884 0.596931 40.9412 0.836014 41.1215 1.13708C41.302 1.43461 41.3922 1.76401 41.3922 2.12529C41.3922 2.53616 41.2804 2.90276 41.0565 3.22507C40.8329 3.54385 40.5333 3.76521 40.1579 3.88919L40.1471 3.62885C40.6524 3.77053 41.0495 4.01848 41.338 4.37267C41.6268 4.72686 41.7711 5.15545 41.7711 5.6584C41.7711 6.10115 41.6756 6.48369 41.4843 6.806C41.293 7.12478 41.0241 7.37095 40.6776 7.5445C40.3312 7.71805 39.9288 7.80483 39.4706 7.80483H36.2118ZM37.0129 7.05571H39.2757C39.5932 7.05571 39.8784 7.0008 40.131 6.89101C40.3835 6.77766 40.5821 6.61827 40.7264 6.41284C40.8745 6.20741 40.9483 5.95946 40.9483 5.66903C40.9483 5.38566 40.8816 5.13064 40.7481 4.90396C40.6146 4.67728 40.4324 4.49664 40.2013 4.36204C39.9739 4.2239 39.7141 4.15484 39.4217 4.15484H37.0129V7.05571ZM37.0129 3.41634H39.216C39.465 3.41634 39.6924 3.36143 39.8981 3.25163C40.1038 3.13829 40.2662 2.98421 40.3853 2.78941C40.5081 2.59461 40.5694 2.36968 40.5694 2.11466C40.5694 1.75338 40.4414 1.4594 40.1851 1.23271C39.9326 1.00603 39.6095 0.892685 39.216 0.892685H37.0129V3.41634ZM44.3805 7.80483V4.60112L41.7658 0.154185H42.686L44.7811 3.70855L46.8651 0.154185H47.7853L45.1817 4.60112V7.80483H44.3805Z" fill="white"/>
<path d="M0 14.0322H10.4502C12.9937 14.0322 15.2164 14.5102 17.1185 15.4662C19.0426 16.4221 20.5245 17.7893 21.564 19.5678C22.6256 21.3241 23.1564 23.3694 23.1564 25.7037C23.1564 28.038 22.6256 30.0944 21.564 31.8729C20.5245 33.6292 19.0426 34.9853 17.1185 35.9412C15.2164 36.8972 12.9937 37.3752 10.4502 37.3752H0V14.0322ZM10.218 30.2722C11.7219 30.2722 12.9052 29.8721 13.7678 29.0717C14.6303 28.2492 15.0616 27.1265 15.0616 25.7037C15.0616 24.2809 14.6303 23.1693 13.7678 22.369C12.9052 21.5464 11.7219 21.1351 10.218 21.1351H7.92891V30.2722H10.218ZM26.1449 14.0322H32.6473L39.8795 23.8363L47.1449 14.0322H53.6141V37.3752H45.7847V32.0063L45.8511 27.2043H45.7515L42.1022 32.2397H37.6567L34.0075 27.171L33.9079 27.2043L33.9743 32.0063V37.3752H26.1449V14.0322ZM57.7976 14.0322H65.826V37.3752H57.7976V14.0322ZM75.5194 21.3352H68.7848V14.0322H90.2824V21.3352H83.5478V37.3752H75.5194V21.3352ZM93.3057 14.0322H104.784C106.731 14.0322 108.411 14.3768 109.827 15.066C111.265 15.7552 112.359 16.7444 113.111 18.0339C113.885 19.3233 114.273 20.8461 114.273 22.6024C114.273 24.1364 113.974 25.5036 113.377 26.7041C112.802 27.8824 111.961 28.8383 110.855 29.572L114.737 37.3752H105.912L103.159 31.1726H101.268V37.3752H93.3057V14.0322ZM103.491 25.2368C104.375 25.2368 105.05 25.0256 105.514 24.6032C106.001 24.1586 106.244 23.5361 106.244 22.7358C106.244 21.9132 106.001 21.2908 105.514 20.8684C105.05 20.446 104.375 20.2348 103.491 20.2348H101.135V25.2368H103.491ZM117.831 14.0322H125.859V37.3752H117.831V14.0322ZM136.282 29.6053L128.022 14.0322H136.913L138.804 18.3673L140.23 21.9021H140.33L141.723 18.3673L143.614 14.0322H152.538L144.311 29.4719V37.3752H136.282V29.6053ZM0 40.2499H8.02843V48.0865H8.72511C9.72037 48.0865 10.4171 47.942 10.8152 47.653C11.2354 47.3639 11.5892 46.7859 11.8768 45.9189L13.7678 40.2499H22.3934L19.0426 49.2536C18.5561 50.4985 18.0363 51.5102 17.4834 52.2882L23.1896 63.5928H14.0332L10.1848 55.2894H8.02843V63.5928H0V40.2499ZM35.7861 64.093C33.5965 64.093 31.6943 63.6929 30.08 62.8926C28.4875 62.0699 27.2601 60.8917 26.3975 59.3578C25.5569 57.8238 25.1368 56.0008 25.1368 53.8889V40.2499H33.1321V53.4553C33.1321 55.6119 34.0166 56.69 35.7861 56.69C37.5554 56.69 38.4401 55.6119 38.4401 53.4553V40.2499H46.4686V53.8889C46.4686 56.0008 46.0373 57.8238 45.1747 59.3578C44.3341 60.8917 43.1067 62.0699 41.4923 62.8926C39.8777 63.6929 37.9757 64.093 35.7861 64.093ZM49.2853 57.8572L57.9772 47.2528L57.944 47.1527L55.0578 47.1861H49.617V40.2499H68.162V45.9856L59.5033 56.59L59.5365 56.69L62.7545 56.6567H68.3611V63.5928H49.2853V57.8572ZM71.502 40.2499H78.0044L85.4356 50.3207H85.5683L85.502 47.3528V40.2499H93.3645V63.5928H86.8622L79.3977 53.422H79.2982L79.3645 56.4899V63.5928H71.502V40.2499ZM97.5174 40.2499H114.238V46.219H105.314V48.9201H113.375V54.7225H105.314V57.5237H114.57V63.5928H97.5174V40.2499ZM123.501 47.5529H116.766V40.2499H138.264V47.5529H131.529V63.5928H123.501V47.5529ZM149.723 64.093C146.56 64.093 144.094 63.3817 142.324 61.9588C140.577 60.5139 139.704 58.5018 139.704 55.923H147.367C147.367 56.679 147.566 57.2569 147.964 57.6571C148.362 58.0572 148.938 58.2573 149.689 58.2573C150.331 58.2573 150.829 58.135 151.182 57.8905C151.536 57.6237 151.713 57.2569 151.713 56.79C151.713 56.2121 151.404 55.7452 150.784 55.3895C150.187 55.0116 149.225 54.7115 147.898 54.4891C145.156 54.0222 143.132 53.1886 141.827 51.9881C140.522 50.7876 139.87 49.1646 139.87 47.1194C139.87 44.8295 140.699 43.0288 142.358 41.7172C144.039 40.4056 146.339 39.7497 149.258 39.7497C151.249 39.7497 152.974 40.0721 154.433 40.7168C155.915 41.3614 157.054 42.2951 157.851 43.5179C158.669 44.7184 159.089 46.13 159.111 47.753H151.614C151.614 47.0194 151.415 46.4635 151.016 46.0856C150.641 45.6855 150.099 45.4854 149.391 45.4854C148.772 45.4854 148.285 45.6188 147.931 45.8856C147.577 46.1523 147.4 46.5081 147.4 46.9527C147.4 47.4862 147.677 47.9197 148.23 48.2532C148.805 48.5867 149.789 48.8868 151.182 49.1536C154.08 49.7094 156.192 50.5765 157.519 51.7546C158.868 52.9328 159.542 54.5224 159.542 56.5233C159.542 58.9019 158.68 60.7583 156.955 62.0922C155.23 63.4261 152.819 64.093 149.723 64.093ZM174.249 64.093C171.75 64.093 169.527 63.5818 167.581 62.5591C165.635 61.5143 164.12 60.0691 163.036 58.224C161.952 56.3788 161.41 54.278 161.41 51.9214C161.41 49.5648 161.952 47.4639 163.036 45.6188C164.12 43.7737 165.635 42.3397 167.581 41.317C169.527 40.2722 171.75 39.7497 174.249 39.7497C176.77 39.7497 179.004 40.2722 180.95 41.317C182.897 42.3397 184.412 43.7737 185.495 45.6188C186.579 47.4639 187.121 49.5648 187.121 51.9214C187.121 54.278 186.579 56.3788 185.495 58.224C184.412 60.0691 182.897 61.5143 180.95 62.5591C179.004 63.5818 176.77 64.093 174.249 64.093ZM169.505 51.9214C169.505 53.3443 169.947 54.5114 170.832 55.4228C171.717 56.3121 172.856 56.7567 174.249 56.7567C175.642 56.7567 176.782 56.3121 177.666 55.4228C178.573 54.5114 179.026 53.3443 179.026 51.9214C179.026 50.4985 178.573 49.3426 177.666 48.4533C176.782 47.5419 175.642 47.0861 174.249 47.0861C172.856 47.0861 171.717 47.5419 170.832 48.4533C169.947 49.3426 169.505 50.4985 169.505 51.9214ZM186.986 40.2499H195.545L197.768 47.4862L199.427 53.0885H199.559L201.251 47.4862L203.474 40.2499H212L203.673 63.5928H195.313L186.986 40.2499Z" fill="white"/>
</svg>
